<?xml version="1.0" standalone="no"?>
<!DOCTYPE svg PUBLIC "-//W3C//DTD SVG 20010904//EN"
 "http://www.w3.org/TR/2001/REC-SVG-20010904/DTD/svg10.dtd">
<svg version="1.0" xmlns="http://www.w3.org/2000/svg"
 width="500.000000pt" height="500.000000pt" viewBox="0 0 500.000000 500.000000"
 preserveAspectRatio="xMidYMid meet">
<metadata>
Created by potrace 1.14, written by Peter Selinger 2001-2017
</metadata>
<g transform="translate(0.000000,500.000000) scale(0.100000,-0.100000)"
fill="#000000" stroke="none">
<path d="M625 4822 c-2 -2 -21 -5 -42 -6 -21 -2 -45 -3 -54 -4 -21 -3 -75 -55
-84 -82 -8 -24 -45 -61 -55 -55 -4 3 -13 -2 -20 -10 -7 -8 -19 -15 -26 -15 -8
0 -14 -4 -14 -9 0 -5 -9 -12 -20 -16 -11 -3 -42 -24 -70 -46 -27 -21 -52 -39
-56 -39 -4 0 -17 -12 -30 -26 -38 -40 -69 -52 -114 -44 l-40 7 0 -1404 0
-1404 43 2 c23 1 56 8 74 15 17 7 34 10 37 6 3 -3 6 0 6 7 0 7 5 9 10 6 6 -4
10 -3 9 2 -1 4 -1 20 0 34 1 20 6 25 23 23 13 -1 23 -3 23 -4 0 -1 15 -3 32
-4 44 -3 49 -10 24 -35 -12 -12 -18 -21 -15 -21 4 0 1 -6 -5 -14 -19 -22 -5
-61 36 -104 21 -22 55 -61 76 -86 21 -25 45 -46 52 -46 7 0 18 -6 24 -14 10
-12 66 -31 83 -27 5 0 8 -4 8 -9 0 -6 6 -10 13 -10 6 0 41 -20 76 -45 54 -37
89 -54 151 -70 47 -12 108 -56 140 -100 24 -33 71 -62 125 -77 60 -17 91 -17
88 -1 -2 7 0 13 5 14 21 2 44 8 49 13 8 7 100 -44 132 -73 8 -8 37 -27 63 -43
26 -16 48 -34 48 -39 0 -6 5 -7 10 -4 6 3 10 3 10 -2 0 -4 17 -27 39 -49 51
-56 61 -83 65 -184 0 -19 6 -38 11 -42 7 -5 6 -8 0 -8 -11 0 -17 -35 -19 -115
-1 -41 -6 -55 -31 -81 -16 -18 -46 -51 -65 -74 -19 -23 -40 -48 -47 -55 -17
-18 -33 -85 -28 -120 2 -16 10 -46 19 -66 11 -26 12 -39 4 -47 -6 -6 -12 -36
-14 -66 l-4 -56 1810 0 1810 0 0 389 c0 362 -1 390 -18 395 -9 3 -36 24 -60
47 -35 32 -41 43 -32 55 7 7 17 11 23 7 6 -3 7 -1 3 5 -4 7 -3 12 2 12 5 0 12
9 15 21 3 12 10 18 16 14 6 -3 11 -1 11 5 0 6 5 8 10 5 6 -3 10 -1 10 5 0 6 5
8 10 5 6 -4 10 35 10 109 0 66 -4 117 -10 121 -6 3 -10 2 -10 -2 0 -13 -82 -9
-116 5 -27 11 -70 67 -66 85 1 4 -4 7 -11 7 -7 0 -23 18 -37 39 -13 22 -28 38
-32 35 -4 -3 -9 0 -9 5 -3 20 -5 26 -22 58 -10 18 -17 35 -17 38 0 3 0 11 0
18 0 20 -80 101 -120 122 -21 11 -52 17 -80 16 -133 -7 -261 1 -318 18 -18 5
-36 11 -40 12 -4 1 -16 5 -27 9 -11 4 -24 8 -29 8 -5 0 -12 5 -15 10 -8 14
-140 72 -162 72 -10 0 -20 4 -24 10 -7 11 -354 8 -372 -3 -7 -4 -14 -3 -18 3
-4 6 -13 7 -23 2 -15 -7 -41 -8 -79 -4 -12 2 -10 32 2 52 3 6 8 46 10 90 l4
80 -34 26 c-19 14 -35 31 -35 36 0 5 -19 36 -42 70 -24 33 -50 75 -60 92 -18
34 -52 108 -53 116 0 3 -9 21 -20 40 -10 19 -30 58 -44 85 -14 28 -33 59 -43
69 -9 10 -15 23 -12 28 3 4 0 8 -5 8 -6 0 -11 6 -11 14 0 8 -3 16 -8 18 -23
10 -182 316 -186 358 -1 14 -6 32 -11 40 -5 8 -11 24 -12 35 -2 11 -7 29 -13
40 -22 46 -33 83 -36 124 -3 48 -41 151 -56 151 -5 0 -6 5 -3 10 3 6 2 10 -3
10 -5 0 -15 13 -21 28 -7 15 -23 40 -36 54 -13 14 -21 29 -18 32 4 3 -1 6 -10
6 -9 0 -17 4 -17 9 0 10 -41 23 -83 27 -16 1 -38 11 -50 21 -12 11 -34 30 -48
42 -23 20 -26 27 -18 54 4 18 11 44 13 58 4 20 11 26 28 25 59 -3 68 82 29
289 -5 25 -7 63 -6 85 3 34 -2 44 -46 88 -27 27 -49 47 -49 45 0 -3 -8 4 -17
16 -10 12 -28 23 -41 24 -12 1 -41 18 -64 39 -23 21 -48 39 -55 39 -16 2 -24
4 -43 12 -8 4 -29 8 -45 10 -17 2 -36 7 -43 11 -7 4 -12 5 -12 2 0 -7 -97 22
-135 40 -30 14 -42 34 -64 106 -7 20 -23 48 -36 62 -14 15 -25 29 -25 31 0 3
-3 5 -6 4 -4 0 -10 4 -13 9 -7 11 -151 85 -151 77 0 -2 -20 4 -44 14 -39 17
-148 38 -169 33 -4 -1 -15 -4 -25 -5 -9 -2 -28 -9 -42 -17 -17 -10 -61 -15
-143 -16 l-118 -1 -52 49 c-30 28 -68 53 -90 59 -36 9 -294 19 -302 11z"/>
</g>
</svg>
